<svg width="183" height="20" viewBox="0 0 183 20" fill="none" xmlns="http://www.w3.org/2000/svg">
<path d="M17.955 19.5H13.905L12.771 16.098H5.238L4.104 19.5H0.081L6.696 0.599999H11.313L17.955 19.5ZM9.018 4.893L6.426 12.615H11.61L9.018 4.893ZM26.3098 19.878C24.2038 19.878 22.4758 19.284 21.1258 18.096C19.7758 16.908 19.1008 15.315 19.1008 13.317V0.599999H22.7998V13.02C22.7998 14.028 23.0878 14.82 23.6638 15.396C24.2578 15.954 25.1398 16.233 26.3098 16.233C27.4798 16.233 28.3528 15.954 28.9288 15.396C29.5228 14.82 29.8198 14.028 29.8198 13.02V0.599999H33.5458V13.317C33.5458 15.315 32.8708 16.908 31.5208 18.096C30.1708 19.284 28.4338 19.878 26.3098 19.878ZM45.8665 19.878C43.0405 19.878 40.6915 18.933 38.8195 17.043C36.9655 15.171 36.0385 12.84 36.0385 10.05C36.0385 7.242 36.9655 4.911 38.8195 3.057C40.6915 1.167 43.0405 0.221999 45.8665 0.221999C47.5765 0.221999 49.1515 0.626999 50.5915 1.437C52.0495 2.229 53.1835 3.309 53.9935 4.677L50.7805 6.54C50.3125 5.694 49.6465 5.037 48.7825 4.569C47.9185 4.083 46.9465 3.84 45.8665 3.84C44.0305 3.84 42.5455 4.416 41.4115 5.568C40.2955 6.738 39.7375 8.232 39.7375 10.05C39.7375 11.85 40.2955 13.335 41.4115 14.505C42.5455 15.657 44.0305 16.233 45.8665 16.233C46.9465 16.233 47.9185 15.999 48.7825 15.531C49.6645 15.045 50.3305 14.388 50.7805 13.56L53.9935 15.423C53.1835 16.791 52.0495 17.88 50.5915 18.69C49.1515 19.482 47.5765 19.878 45.8665 19.878ZM54.7992 0.599999H68.7042V4.164H63.6012V19.5H59.8752V4.164H54.7992V0.599999ZM70.7843 19.5V0.599999H74.5103V19.5H70.7843ZM93.9119 17.043C92.0039 18.933 89.6819 19.878 86.9459 19.878C84.2099 19.878 81.8879 18.933 79.9799 17.043C78.0899 15.117 77.1449 12.786 77.1449 10.05C77.1449 7.296 78.0899 4.974 79.9799 3.084C81.8879 1.176 84.2099 0.221999 86.9459 0.221999C89.6819 0.221999 92.0039 1.176 93.9119 3.084C95.8199 4.974 96.7739 7.296 96.7739 10.05C96.7739 12.804 95.8199 15.135 93.9119 17.043ZM82.5989 14.505C83.7509 15.657 85.1999 16.233 86.9459 16.233C88.6919 16.233 90.1409 15.657 91.2929 14.505C92.4629 13.335 93.0479 11.85 93.0479 10.05C93.0479 8.25 92.4629 6.765 91.2929 5.595C90.1229 4.425 88.6739 3.84 86.9459 3.84C85.2179 3.84 83.7689 4.425 82.5989 5.595C81.4289 6.765 80.8439 8.25 80.8439 10.05C80.8439 11.85 81.4289 13.335 82.5989 14.505ZM110.328 12.129V0.599999H114.054V19.5H111.219L103.119 7.944V19.5H99.3927V0.599999H102.228L110.328 12.129ZM121.718 17.556C121.718 18.186 121.493 18.726 121.043 19.176C120.593 19.626 120.053 19.851 119.423 19.851C118.793 19.851 118.253 19.626 117.803 19.176C117.353 18.726 117.128 18.186 117.128 17.556C117.128 16.926 117.353 16.386 117.803 15.936C118.253 15.486 118.793 15.261 119.423 15.261C120.053 15.261 120.593 15.486 121.043 15.936C121.493 16.386 121.718 16.926 121.718 17.556ZM132.377 19.878C129.551 19.878 127.202 18.933 125.33 17.043C123.476 15.171 122.549 12.84 122.549 10.05C122.549 7.242 123.476 4.911 125.33 3.057C127.202 1.167 129.551 0.221999 132.377 0.221999C134.087 0.221999 135.662 0.626999 137.102 1.437C138.56 2.229 139.694 3.309 140.504 4.677L137.291 6.54C136.823 5.694 136.157 5.037 135.293 4.569C134.429 4.083 133.457 3.84 132.377 3.84C130.541 3.84 129.056 4.416 127.922 5.568C126.806 6.738 126.248 8.232 126.248 10.05C126.248 11.85 126.806 13.335 127.922 14.505C129.056 15.657 130.541 16.233 132.377 16.233C133.457 16.233 134.429 15.999 135.293 15.531C136.175 15.045 136.841 14.388 137.291 13.56L140.504 15.423C139.694 16.791 138.56 17.88 137.102 18.69C135.662 19.482 134.087 19.878 132.377 19.878ZM158.512 17.043C156.604 18.933 154.282 19.878 151.546 19.878C148.81 19.878 146.488 18.933 144.58 17.043C142.69 15.117 141.745 12.786 141.745 10.05C141.745 7.296 142.69 4.974 144.58 3.084C146.488 1.176 148.81 0.221999 151.546 0.221999C154.282 0.221999 156.604 1.176 158.512 3.084C160.42 4.974 161.374 7.296 161.374 10.05C161.374 12.804 160.42 15.135 158.512 17.043ZM147.199 14.505C148.351 15.657 149.8 16.233 151.546 16.233C153.292 16.233 154.741 15.657 155.893 14.505C157.063 13.335 157.648 11.85 157.648 10.05C157.648 8.25 157.063 6.765 155.893 5.595C154.723 4.425 153.274 3.84 151.546 3.84C149.818 3.84 148.369 4.425 147.199 5.595C146.029 6.765 145.444 8.25 145.444 10.05C145.444 11.85 146.029 13.335 147.199 14.505ZM178.653 0.599999H182.487V19.5H178.788V7.242L173.469 16.017H173.037L167.718 7.269V19.5H163.992V0.599999H167.826L173.253 9.537L178.653 0.599999Z" fill="#171717"/>
</svg>
