<svg width="20" height="20" viewBox="0 0 20 20" fill="none" xmlns="http://www.w3.org/2000/svg">
<path d="M13.9101 8.56051C13.7088 8.01353 13.3949 7.51489 12.9888 7.09679C12.5826 6.6787 12.0933 6.35047 11.5524 6.1333" stroke="#4B4B4B" stroke-linecap="round"/>
<path d="M17.2444 8.05867C16.9037 6.78701 16.2342 5.62744 15.3033 4.69651C14.3724 3.76559 13.2128 3.09611 11.9411 2.75537" stroke="#4B4B4B" stroke-linecap="round"/>
<path fill-rule="evenodd" clip-rule="evenodd" d="M7.95432 7.20237C8.29053 8.41718 7.91236 9.68452 7.08375 10.4657C6.92665 10.6138 6.87601 10.8532 6.99944 11.0304C7.26217 11.4076 7.56098 11.7661 7.89604 12.1014C8.23059 12.4362 8.58825 12.7349 8.96453 12.9976C9.14218 13.1216 9.38234 13.0701 9.53023 12.9117C10.3101 12.0765 11.5811 11.6942 12.7993 12.0318C14.4412 12.4869 15.3653 14.0777 14.8633 15.5848C13.3925 20.0015 7.72954 15.6238 6.05292 13.9459C4.33578 12.2275 0.0254392 6.59711 4.40396 5.13675C5.91001 4.63441 7.49955 5.55923 7.95432 7.20237Z" stroke="#4B4B4B"/>
</svg>
