<svg width="0" height="0" class="hidden">
  <symbol fill="none" xmlns="http://www.w3.org/2000/svg" viewBox="0 0 183 20" id="logo">
    <path d="M17.955 19.5H13.905L12.771 16.098H5.238L4.104 19.5H0.081L6.696 0.599999H11.313L17.955 19.5ZM9.018 4.893L6.426 12.615H11.61L9.018 4.893ZM26.3098 19.878C24.2038 19.878 22.4758 19.284 21.1258 18.096C19.7758 16.908 19.1008 15.315 19.1008 13.317V0.599999H22.7998V13.02C22.7998 14.028 23.0878 14.82 23.6638 15.396C24.2578 15.954 25.1398 16.233 26.3098 16.233C27.4798 16.233 28.3528 15.954 28.9288 15.396C29.5228 14.82 29.8198 14.028 29.8198 13.02V0.599999H33.5458V13.317C33.5458 15.315 32.8708 16.908 31.5208 18.096C30.1708 19.284 28.4338 19.878 26.3098 19.878ZM45.8665 19.878C43.0405 19.878 40.6915 18.933 38.8195 17.043C36.9655 15.171 36.0385 12.84 36.0385 10.05C36.0385 7.242 36.9655 4.911 38.8195 3.057C40.6915 1.167 43.0405 0.221999 45.8665 0.221999C47.5765 0.221999 49.1515 0.626999 50.5915 1.437C52.0495 2.229 53.1835 3.309 53.9935 4.677L50.7805 6.54C50.3125 5.694 49.6465 5.037 48.7825 4.569C47.9185 4.083 46.9465 3.84 45.8665 3.84C44.0305 3.84 42.5455 4.416 41.4115 5.568C40.2955 6.738 39.7375 8.232 39.7375 10.05C39.7375 11.85 40.2955 13.335 41.4115 14.505C42.5455 15.657 44.0305 16.233 45.8665 16.233C46.9465 16.233 47.9185 15.999 48.7825 15.531C49.6645 15.045 50.3305 14.388 50.7805 13.56L53.9935 15.423C53.1835 16.791 52.0495 17.88 50.5915 18.69C49.1515 19.482 47.5765 19.878 45.8665 19.878ZM54.7992 0.599999H68.7042V4.164H63.6012V19.5H59.8752V4.164H54.7992V0.599999ZM70.7843 19.5V0.599999H74.5103V19.5H70.7843ZM93.9119 17.043C92.0039 18.933 89.6819 19.878 86.9459 19.878C84.2099 19.878 81.8879 18.933 79.9799 17.043C78.0899 15.117 77.1449 12.786 77.1449 10.05C77.1449 7.296 78.0899 4.974 79.9799 3.084C81.8879 1.176 84.2099 0.221999 86.9459 0.221999C89.6819 0.221999 92.0039 1.176 93.9119 3.084C95.8199 4.974 96.7739 7.296 96.7739 10.05C96.7739 12.804 95.8199 15.135 93.9119 17.043ZM82.5989 14.505C83.7509 15.657 85.1999 16.233 86.9459 16.233C88.6919 16.233 90.1409 15.657 91.2929 14.505C92.4629 13.335 93.0479 11.85 93.0479 10.05C93.0479 8.25 92.4629 6.765 91.2929 5.595C90.1229 4.425 88.6739 3.84 86.9459 3.84C85.2179 3.84 83.7689 4.425 82.5989 5.595C81.4289 6.765 80.8439 8.25 80.8439 10.05C80.8439 11.85 81.4289 13.335 82.5989 14.505ZM110.328 12.129V0.599999H114.054V19.5H111.219L103.119 7.944V19.5H99.3927V0.599999H102.228L110.328 12.129ZM121.718 17.556C121.718 18.186 121.493 18.726 121.043 19.176C120.593 19.626 120.053 19.851 119.423 19.851C118.793 19.851 118.253 19.626 117.803 19.176C117.353 18.726 117.128 18.186 117.128 17.556C117.128 16.926 117.353 16.386 117.803 15.936C118.253 15.486 118.793 15.261 119.423 15.261C120.053 15.261 120.593 15.486 121.043 15.936C121.493 16.386 121.718 16.926 121.718 17.556ZM132.377 19.878C129.551 19.878 127.202 18.933 125.33 17.043C123.476 15.171 122.549 12.84 122.549 10.05C122.549 7.242 123.476 4.911 125.33 3.057C127.202 1.167 129.551 0.221999 132.377 0.221999C134.087 0.221999 135.662 0.626999 137.102 1.437C138.56 2.229 139.694 3.309 140.504 4.677L137.291 6.54C136.823 5.694 136.157 5.037 135.293 4.569C134.429 4.083 133.457 3.84 132.377 3.84C130.541 3.84 129.056 4.416 127.922 5.568C126.806 6.738 126.248 8.232 126.248 10.05C126.248 11.85 126.806 13.335 127.922 14.505C129.056 15.657 130.541 16.233 132.377 16.233C133.457 16.233 134.429 15.999 135.293 15.531C136.175 15.045 136.841 14.388 137.291 13.56L140.504 15.423C139.694 16.791 138.56 17.88 137.102 18.69C135.662 19.482 134.087 19.878 132.377 19.878ZM158.512 17.043C156.604 18.933 154.282 19.878 151.546 19.878C148.81 19.878 146.488 18.933 144.58 17.043C142.69 15.117 141.745 12.786 141.745 10.05C141.745 7.296 142.69 4.974 144.58 3.084C146.488 1.176 148.81 0.221999 151.546 0.221999C154.282 0.221999 156.604 1.176 158.512 3.084C160.42 4.974 161.374 7.296 161.374 10.05C161.374 12.804 160.42 15.135 158.512 17.043ZM147.199 14.505C148.351 15.657 149.8 16.233 151.546 16.233C153.292 16.233 154.741 15.657 155.893 14.505C157.063 13.335 157.648 11.85 157.648 10.05C157.648 8.25 157.063 6.765 155.893 5.595C154.723 4.425 153.274 3.84 151.546 3.84C149.818 3.84 148.369 4.425 147.199 5.595C146.029 6.765 145.444 8.25 145.444 10.05C145.444 11.85 146.029 13.335 147.199 14.505ZM178.653 0.599999H182.487V19.5H178.788V7.242L173.469 16.017H173.037L167.718 7.269V19.5H163.992V0.599999H167.826L173.253 9.537L178.653 0.599999Z" fill="#171717"></path>
  </symbol>

  <symbol fill="none" xmlns="http://www.w3.org/2000/svg" viewBox="0 0 20 20" id="AuthorizationIcons">
    <path d="M9.73328 12.1834L11.8666 10.0501L9.73328 7.91675" stroke-width="1.5" stroke-miterlimit="10" stroke-linecap="round" stroke-linejoin="round"></path>
    <path d="M3.33337 10.05H11.8084" stroke-width="1.5" stroke-miterlimit="10" stroke-linecap="round" stroke-linejoin="round"></path>
    <path d="M10 3.33325C13.6833 3.33325 16.6667 5.83325 16.6667 9.99992C16.6667 14.1666 13.6833 16.6666 10 16.6666" stroke-width="1.5" stroke-miterlimit="10" stroke-linecap="round" stroke-linejoin="round"></path>
  </symbol>

  <symbol fill="none" xmlns="http://www.w3.org/2000/svg" viewBox="0 0 24 24" id="Eye">
    <path d="M20.188 10.9343C20.7045 11.5613 20.7045 12.4387 20.188 13.0657C18.7679 14.7899 15.6357 18 12 18C8.36426 18 5.23205 14.7899 3.81196 13.0657C3.29551 12.4387 3.29551 11.5613 3.81196 10.9343C5.23205 9.21014 8.36426 6 12 6C15.6357 6 18.7679 9.21014 20.188 10.9343Z" stroke="#171717" stroke-width="2"></path>
    <path d="M15 12C15 13.6569 13.6569 15 12 15C10.3431 15 9 13.6569 9 12C9 10.3431 10.3431 9 12 9C13.6569 9 15 10.3431 15 12Z" stroke="#171717" stroke-width="2"></path>
  </symbol>
  <symbol fill="none" xmlns="http://www.w3.org/2000/svg" viewBox="0 0 24 24" id="Card">
    <path d="M2 8.5H13" stroke="#171717" stroke-width="1.5" stroke-miterlimit="10" stroke-linecap="round" stroke-linejoin="round"></path>
    <path d="M6 16.5H8" stroke="#171717" stroke-width="1.5" stroke-miterlimit="10" stroke-linecap="round" stroke-linejoin="round"></path>
    <path d="M10.5 16.5H14.5" stroke="#171717" stroke-width="1.5" stroke-miterlimit="10" stroke-linecap="round" stroke-linejoin="round"></path>
    <path d="M22 11.33V16.11C22 19.62 21.11 20.5 17.56 20.5H6.44C2.89 20.5 2 19.62 2 16.11V7.89001C2 4.38001 2.89 3.5 6.44 3.5H13.28" stroke="#171717" stroke-width="1.5" stroke-linecap="round" stroke-linejoin="round"></path>
    <path d="M17 3.25H20.13C20.82 3.25 21.38 3.88 21.38 4.5C21.38 5.19 20.82 5.75 20.13 5.75H17V3.25Z" stroke="#171717" stroke-width="1.5" stroke-miterlimit="10" stroke-linecap="round" stroke-linejoin="round"></path>
    <path d="M17 5.75H20.57C21.36 5.75 22 6.31 22 7C22 7.69 21.36 8.25 20.57 8.25H17V5.75Z" stroke="#171717" stroke-width="1.5" stroke-miterlimit="10" stroke-linecap="round" stroke-linejoin="round"></path>
    <path d="M18.76 8.25V9.5" stroke="#171717" stroke-width="1.5" stroke-miterlimit="10" stroke-linecap="round" stroke-linejoin="round"></path>
    <path d="M18.76 2V3.25" stroke="#171717" stroke-width="1.5" stroke-miterlimit="10" stroke-linecap="round" stroke-linejoin="round"></path>
    <path d="M18.19 3.25H16" stroke="#171717" stroke-width="1.5" stroke-miterlimit="10" stroke-linecap="round" stroke-linejoin="round"></path>
    <path d="M18.19 8.25H16" stroke="#171717" stroke-width="1.5" stroke-miterlimit="10" stroke-linecap="round" stroke-linejoin="round"></path>
  </symbol>
  <symbol fill="none" xmlns="http://www.w3.org/2000/svg" viewBox="0 0 24 24" id="InfoCircle">
    <path d="M12.2666 21C17.2372 21 21.2666 16.9706 21.2666 12C21.2666 7.02944 17.2372 3 12.2666 3C7.29604 3 3.2666 7.02944 3.2666 12C3.2666 16.9706 7.29604 21 12.2666 21Z" stroke="#171717" stroke-width="2" stroke-linecap="round" stroke-linejoin="round"></path>
    <path d="M12.2666 16V12" stroke="#171717" stroke-width="2" stroke-linecap="round" stroke-linejoin="round"></path>
    <path d="M12.2666 8H12.2766" stroke="#171717" stroke-width="2" stroke-linecap="round" stroke-linejoin="round"></path>
  </symbol>
  <symbol fill="none" xmlns="http://www.w3.org/2000/svg" viewBox="0 0 24 24" id="check">
    <path d="M19 7L10.25 17L5 12.4545" stroke="#171717" stroke-width="2" stroke-linecap="round" stroke-linejoin="round"></path>
  </symbol>
  <symbol fill="none" xmlns="http://www.w3.org/2000/svg" viewBox="0 0 24 24" id="Close">
    <path d="M6 6L18 18" stroke="#171717" stroke-width="2" stroke-linecap="round"></path>
    <path d="M18 6L6 18" stroke="#171717" stroke-width="2" stroke-linecap="round"></path>
  </symbol>
  <symbol fill="none" xmlns="http://www.w3.org/2000/svg" viewBox="0 0 24 24" id="Clock">
    <path fill-rule="evenodd" clip-rule="evenodd" d="M12 3C9.51472 3 7.26472 4.00736 5.63604 5.63604C4.00736 7.26472 3 9.51472 3 12C3 14.4853 4.00736 16.7353 5.63604 18.364C7.26472 19.9926 9.51472 21 12 21C14.4853 21 16.7353 19.9926 18.364 18.364C19.9926 16.7353 21 14.4853 21 12C21 9.51472 19.9926 7.26472 18.364 5.63604C16.7353 4.00736 14.4853 3 12 3Z" stroke="#171717" stroke-width="2" stroke-linecap="round" stroke-linejoin="round"></path>
    <path d="M12 8L12 12" stroke="#171717" stroke-width="2" stroke-linecap="round" stroke-linejoin="round"></path>
    <path d="M12 12L14 14" stroke="#171717" stroke-width="2" stroke-linecap="round" stroke-linejoin="round"></path>
  </symbol>
  <symbol fill="none" xmlns="http://www.w3.org/2000/svg" viewBox="0 0 24 24" id="favourite">
    <path d="M11.1432 4.42373C11.5319 3.77791 12.4682 3.77791 12.8568 4.42373L14.744 7.55957C14.8836 7.79158 15.1114 7.95705 15.3752 8.01815L18.9407 8.84393C19.675 9.014 19.9644 9.90447 19.4703 10.4737L17.0711 13.2375C16.8935 13.442 16.8066 13.7097 16.83 13.9795L17.1464 17.6257C17.2116 18.3767 16.4541 18.927 15.7601 18.633L12.3901 17.2053C12.1408 17.0996 11.8593 17.0996 11.6099 17.2053L8.23996 18.633C7.54592 18.927 6.78845 18.3767 6.85362 17.6257L7.17006 13.9795C7.19347 13.7097 7.10648 13.442 6.92897 13.2375L4.52978 10.4737C4.03567 9.90447 4.325 9.014 5.05931 8.84393L8.62485 8.01815C8.88865 7.95705 9.1164 7.79158 9.25603 7.55957L11.1432 4.42373Z" stroke="#171717" stroke-width="2"></path>
  </symbol>
  <symbol fill="none" xmlns="http://www.w3.org/2000/svg" viewBox="0 0 24 24" id="Location">
    <path d="M19 10.3636C19 16.0909 12 21 12 21C12 21 5 16.0909 5 10.3636C5 8.41068 5.7375 6.53771 7.05025 5.15676C8.36301 3.77581 10.1435 3 12 3C13.8565 3 15.637 3.77581 16.9497 5.15676C18.2625 6.53771 19 8.41068 19 10.3636Z" stroke="#171717" stroke-width="2" stroke-linecap="round" stroke-linejoin="round"></path>
    <path d="M12 13C13.6569 13 15 11.6569 15 10C15 8.34315 13.6569 7 12 7C10.3431 7 9 8.34315 9 10C9 11.6569 10.3431 13 12 13Z" stroke="#171717" stroke-width="2" stroke-linecap="round" stroke-linejoin="round"></path>
  </symbol>
  <symbol fill="none" xmlns="http://www.w3.org/2000/svg" viewBox="0 0 24 24" id="FavouritesActive">
    <path d="M11.1432 4.42373C11.5319 3.77791 12.4682 3.77791 12.8568 4.42373L14.744 7.55957C14.8836 7.79158 15.1114 7.95705 15.3752 8.01815L18.9407 8.84393C19.675 9.014 19.9644 9.90447 19.4703 10.4737L17.0711 13.2375C16.8935 13.442 16.8066 13.7097 16.83 13.9795L17.1464 17.6257C17.2116 18.3767 16.4541 18.927 15.7601 18.633L12.3901 17.2053C12.1408 17.0996 11.8593 17.0996 11.6099 17.2053L8.23996 18.633C7.54592 18.927 6.78845 18.3767 6.85362 17.6257L7.17006 13.9795C7.19347 13.7097 7.10648 13.442 6.92897 13.2375L4.52978 10.4737C4.03567 9.90447 4.325 9.014 5.05931 8.84393L8.62485 8.01815C8.88865 7.95705 9.1164 7.79158 9.25603 7.55957L11.1432 4.42373Z" fill="#171717" stroke="#171717" stroke-width="2"></path>
  </symbol>
  <symbol fill="none" xmlns="http://www.w3.org/2000/svg" viewBox="0 0 24 24" id="calendar">
    <path d="M3 8C3 5.79086 4.79086 4 7 4H17C19.2091 4 21 5.79086 21 8V17C21 19.2091 19.2091 21 17 21H7C4.79086 21 3 19.2091 3 17V8Z" stroke="#171717" stroke-width="2"></path>
    <path d="M8 3V6" stroke="#171717" stroke-width="2" stroke-linecap="round"></path>
    <path d="M17 10H7" stroke="#171717" stroke-width="2" stroke-linecap="round"></path>
    <path d="M17 17L16 17" stroke="#171717" stroke-width="2" stroke-linecap="round"></path>
    <path d="M16 3V6" stroke="#171717" stroke-width="2" stroke-linecap="round"></path>
  </symbol>
  <symbol fill="none" xmlns="http://www.w3.org/2000/svg" viewBox="0 0 24 24" id="EyeClose">
    <path d="M3.81196 13.0657L3.04008 13.7015L3.81196 13.0657ZM20.188 10.9343L19.4161 11.57L20.188 10.9343ZM3.81196 10.9343L4.58385 11.57L3.81196 10.9343ZM20.188 13.0657L19.4161 12.43L19.4161 12.43L20.188 13.0657ZM18.2878 13.6827C17.9002 14.076 17.9048 14.7092 18.2981 15.0968C18.6915 15.4845 19.3246 15.4799 19.7123 15.0866L18.2878 13.6827ZM10.8445 5.09163C10.2989 5.17756 9.92631 5.68948 10.0122 6.23504C10.0982 6.7806 10.6101 7.1532 11.1556 7.06728L10.8445 5.09163ZM12 17C10.4742 17 8.98614 16.3224 7.65913 15.3677C6.34 14.4186 5.26407 13.2558 4.58385 12.43L3.04008 13.7015C3.77994 14.5998 4.98016 15.9041 6.4911 16.9912C7.99414 18.0725 9.89006 19 12 19V17ZM12 7C13.5258 7 15.0138 7.6776 16.3409 8.63233C17.66 9.58138 18.7359 10.7442 19.4161 11.57L20.9599 10.2985C20.22 9.40025 19.0198 8.0959 17.5089 7.00885C16.0058 5.92747 14.1099 5 12 5V7ZM4.58385 12.43C4.37155 12.1722 4.37155 11.8278 4.58385 11.57L3.04008 10.2985C2.21947 11.2948 2.21947 12.7052 3.04008 13.7015L4.58385 12.43ZM20.9599 13.7015C21.7805 12.7052 21.7805 11.2948 20.9599 10.2985L19.4161 11.57C19.6284 11.8278 19.6284 12.1722 19.4161 12.43L20.9599 13.7015ZM19.4161 12.43C19.1159 12.7945 18.7353 13.2286 18.2878 13.6827L19.7123 15.0866C20.2083 14.5833 20.6286 14.1037 20.9599 13.7015L19.4161 12.43ZM15.7973 15.7366C14.6078 16.4956 13.317 17 12 17V19C13.8264 19 15.4908 18.3046 16.8731 17.4227L15.7973 15.7366ZM4.58385 11.57C5.30772 10.6912 6.47662 9.43461 7.90752 8.45823L6.78024 6.80619C5.13166 7.9311 3.82513 9.34539 3.04008 10.2985L4.58385 11.57ZM11.1556 7.06728C11.4353 7.02323 11.7169 7 12 7V5C11.6071 5 11.2214 5.03226 10.8445 5.09163L11.1556 7.06728Z" fill="#171717"></path>
    <path d="M3 3L21 21" stroke="#171717" stroke-width="2" stroke-linecap="round" stroke-linejoin="round"></path>
    <path d="M11.2236 14.8978C10.7149 14.7615 10.2511 14.4937 9.87869 14.1213C9.50632 13.749 9.23853 13.2851 9.10223 12.7765" stroke="#171717" stroke-width="2" stroke-linecap="round"></path>
  </symbol>
  <symbol fill="none" xmlns="http://www.w3.org/2000/svg" viewBox="0 0 24 24" id="Menu">
    <path d="M12 17L19 17M5 12H19M5 7H19" stroke="#171717" stroke-width="2" stroke-linecap="round" stroke-linejoin="round"></path>
  </symbol>
  <symbol fill="none" xmlns="http://www.w3.org/2000/svg" viewBox="0 0 24 24" id="User">
    <path d="M18.14 21.62C17.26 21.88 16.22 22 15 22H8.99998C7.77998 22 6.73999 21.88 5.85999 21.62C6.07999 19.02 8.74998 16.97 12 16.97C15.25 16.97 17.92 19.02 18.14 21.62Z" stroke="#171717" stroke-width="1.5" stroke-linecap="round" stroke-linejoin="round"></path>
    <path d="M15 2H9C4 2 2 4 2 9V15C2 18.78 3.14 20.85 5.86 21.62C6.08 19.02 8.75 16.97 12 16.97C15.25 16.97 17.92 19.02 18.14 21.62C20.86 20.85 22 18.78 22 15V9C22 4 20 2 15 2ZM12 14.17C10.02 14.17 8.42 12.56 8.42 10.58C8.42 8.60002 10.02 7 12 7C13.98 7 15.58 8.60002 15.58 10.58C15.58 12.56 13.98 14.17 12 14.17Z" stroke="#171717" stroke-width="1.5" stroke-linecap="round" stroke-linejoin="round"></path>
    <path d="M15.58 10.58C15.58 12.56 13.98 14.17 12 14.17C10.02 14.17 8.41998 12.56 8.41998 10.58C8.41998 8.60002 10.02 7 12 7C13.98 7 15.58 8.60002 15.58 10.58Z" stroke="#171717" stroke-width="1.5" stroke-linecap="round" stroke-linejoin="round"></path>
  </symbol>
  <symbol fill="none" xmlns="http://www.w3.org/2000/svg" viewBox="0 0 24 24" id="Magazine">
    <path d="M3.00999 11.22V15.71C3.00999 20.2 4.80999 22 9.29999 22H14.69C19.18 22 20.98 20.2 20.98 15.71V11.22" stroke="#171717" stroke-width="1.5" stroke-linecap="round" stroke-linejoin="round"></path>
    <path d="M12 12C13.83 12 15.18 10.51 15 8.68L14.34 2H9.67L9 8.68C8.82 10.51 10.17 12 12 12Z" stroke="#171717" stroke-width="1.5" stroke-linecap="round" stroke-linejoin="round"></path>
    <path d="M18.31 12C20.33 12 21.81 10.36 21.61 8.35L21.33 5.6C20.97 3 19.97 2 17.35 2H14.3L15 9.01C15.17 10.66 16.66 12 18.31 12Z" stroke="#171717" stroke-width="1.5" stroke-linecap="round" stroke-linejoin="round"></path>
    <path d="M5.64 12C7.29 12 8.78 10.66 8.94 9.01L9.16 6.8L9.64001 2H6.59C3.97001 2 2.97 3 2.61 5.6L2.34 8.35C2.14 10.36 3.62 12 5.64 12Z" stroke="#171717" stroke-width="1.5" stroke-linecap="round" stroke-linejoin="round"></path>
    <path d="M12 17C10.33 17 9.5 17.83 9.5 19.5V22H14.5V19.5C14.5 17.83 13.67 17 12 17Z" stroke="#171717" stroke-width="1.5" stroke-linecap="round" stroke-linejoin="round"></path>
  </symbol>
  <symbol fill="none" xmlns="http://www.w3.org/2000/svg" viewBox="0 0 24 24" id="Logout">
    <path d="M11.68 14.62L14.24 12.06L11.68 9.5" stroke="#171717" stroke-width="1.5" stroke-miterlimit="10" stroke-linecap="round" stroke-linejoin="round"></path>
    <path d="M4 12.06H14.17" stroke="#171717" stroke-width="1.5" stroke-miterlimit="10" stroke-linecap="round" stroke-linejoin="round"></path>
    <path d="M12 4C16.42 4 20 7 20 12C20 17 16.42 20 12 20" stroke="#171717" stroke-width="1.5" stroke-miterlimit="10" stroke-linecap="round" stroke-linejoin="round"></path>
  </symbol>
  <symbol fill="none" xmlns="http://www.w3.org/2000/svg" viewBox="0 0 24 24" id="search">
    <path d="M11 19C15.4183 19 19 15.4183 19 11C19 6.58172 15.4183 3 11 3C6.58172 3 3 6.58172 3 11C3 15.4183 6.58172 19 11 19Z" stroke-width="2" stroke-linecap="round" stroke-linejoin="round"></path>
    <path d="M21 21L17 17" stroke-width="2" stroke-linecap="round" stroke-linejoin="round"></path>
  </symbol>
  <symbol fill="none" xmlns="http://www.w3.org/2000/svg" viewBox="0 0 24 24" id="shop">
    <path d="M8.81 2L5.19 5.63" stroke="#171717" stroke-width="1.5" stroke-miterlimit="10" stroke-linecap="round" stroke-linejoin="round"></path>
    <path d="M15.19 2L18.81 5.63" stroke="#171717" stroke-width="1.5" stroke-miterlimit="10" stroke-linecap="round" stroke-linejoin="round"></path>
    <path d="M2 7.85001C2 6.00001 2.99 5.85001 4.22 5.85001H19.78C21.01 5.85001 22 6.00001 22 7.85001C22 10 21.01 9.85001 19.78 9.85001H4.22C2.99 9.85001 2 10 2 7.85001Z" stroke="#171717" stroke-width="1.5"></path>
    <path d="M9.76001 14V17.55" stroke="#171717" stroke-width="1.5" stroke-linecap="round"></path>
    <path d="M14.36 14V17.55" stroke="#171717" stroke-width="1.5" stroke-linecap="round"></path>
    <path d="M3.5 10L4.91 18.64C5.23 20.58 6 22 8.86 22H14.89C18 22 18.46 20.64 18.82 18.76L20.5 10" stroke="#171717" stroke-width="1.5" stroke-linecap="round"></path>
  </symbol>
  <symbol fill="none" xmlns="http://www.w3.org/2000/svg" viewBox="0 0 24 24" id="ChevronRight">
    <path d="M9 19L16 12L9 5" stroke="#171717" stroke-width="2" stroke-linecap="round" stroke-linejoin="round"></path>
  </symbol>
  <symbol fill="none" xmlns="http://www.w3.org/2000/svg" viewBox="0 0 24 24" id="Zoom">
    <path d="M11 19C15.4183 19 19 15.4183 19 11C19 6.58172 15.4183 3 11 3C6.58172 3 3 6.58172 3 11C3 15.4183 6.58172 19 11 19Z" stroke="#171717" stroke-width="2" stroke-linecap="round" stroke-linejoin="round"></path>
    <path d="M21 21L17 17" stroke="#171717" stroke-width="2" stroke-linecap="round" stroke-linejoin="round"></path>
    <path d="M8 11H14M11 8L11 14" stroke="#171717" stroke-width="2" stroke-linecap="round"></path>
  </symbol>
  <symbol fill="none" xmlns="http://www.w3.org/2000/svg" viewBox="0 0 24 24" id="CloseCircle">
    <path d="M3 12C3 7.02944 7.02944 3 12 3C16.9706 3 21 7.02944 21 12C21 16.9706 16.9706 21 12 21C7.02944 21 3 16.9706 3 12Z" stroke="#171717" stroke-width="2"></path>
    <path d="M9 9L15 15M15 9L9 15" stroke="#171717" stroke-width="2" stroke-linecap="round"></path>
  </symbol>


  <symbol fill="none" xmlns="http://www.w3.org/2000/svg" viewBox="0 0 24 24" id="arrow-left">
    <path d="M9.57001 5.93018L3.50001 12.0002L9.57001 18.0702" stroke-width="1.5" stroke-miterlimit="10" stroke-linecap="round" stroke-linejoin="round"></path>
    <path d="M20.5 12H3.67" stroke-width="1.5" stroke-miterlimit="10" stroke-linecap="round" stroke-linejoin="round"></path>
  </symbol>
  <symbol fill="none" xmlns="http://www.w3.org/2000/svg" viewBox="0 0 24 24" id="arrow-right">
    <path d="M14.43 5.93018L20.5 12.0002L14.43 18.0702" stroke-width="1.5" stroke-miterlimit="10" stroke-linecap="round" stroke-linejoin="round"></path>
    <path d="M3.5 12H20.33" stroke-width="1.5" stroke-miterlimit="10" stroke-linecap="round" stroke-linejoin="round"></path>
  </symbol>

  <symbol fill="none" xmlns="http://www.w3.org/2000/svg" viewBox="0 0 20 20" id="chevron-down">
    <path d="M4.16668 7.5L10 13.3333L15.8333 7.5" stroke="#171717" stroke-linecap="round" stroke-linejoin="round"></path>
  </symbol>

  <symbol fill="none" xmlns="http://www.w3.org/2000/svg" viewBox="0 0 24 24" id="zoom">
    <path d="M11 19C15.4183 19 19 15.4183 19 11C19 6.58172 15.4183 3 11 3C6.58172 3 3 6.58172 3 11C3 15.4183 6.58172 19 11 19Z" stroke-linecap="round" stroke-linejoin="round"></path>
    <path d="M21 21L17 17" stroke-linecap="round" stroke-linejoin="round"></path>
    <path d="M8 11H14M11 8L11 14" stroke-linecap="round"></path>
  </symbol>
</svg>
