<?xml version="1.0" encoding="utf-8"?><svg viewBox="0 0 183 24" xmlns="http://www.w3.org/2000/svg" xmlns:xlink="http://www.w3.org/1999/xlink"><style>:root>svg{display:none}:root>svg:target{display:block}</style><svg viewBox="0 0 20 20" id="dollar-square" xmlns="http://www.w3.org/2000/svg"><path d="M7.227 11.941c0 1.075.825 1.942 1.85 1.942h2.091c.892 0 1.617-.758 1.617-1.691 0-1.017-.442-1.376-1.1-1.609L8.327 9.416c-.659-.233-1.1-.591-1.1-1.608 0-.933.725-1.692 1.616-1.692h2.092c1.025 0 1.85.867 1.85 1.942M10 5v10"/><path d="M12.5 18.333h-5c-4.167 0-5.833-1.666-5.833-5.833v-5c0-4.167 1.666-5.833 5.833-5.833h5c4.167 0 5.833 1.666 5.833 5.833v5c0 4.167-1.666 5.833-5.833 5.833Z"/></svg><svg viewBox="0 0 24 24" id="file-text" xmlns="http://www.w3.org/2000/svg"><path d="M9 17h6m-6-4h6M9 9h1M5 6a3 3 0 0 1 3-3h5.172a2 2 0 0 1 1.414.586l3.828 3.828A2 2 0 0 1 19 8.828V18a3 3 0 0 1-3 3H8a3 3 0 0 1-3-3V6Z"/><path d="M13 3v2a4 4 0 0 0 4 4h2"/></svg><svg viewBox="0 0 183 20" id="logo" xmlns="http://www.w3.org/2000/svg"><path d="M17.955 19.5h-4.05l-1.134-3.402H5.238L4.104 19.5H.081L6.696.6h4.617l6.642 18.9ZM9.018 4.893l-2.592 7.722h5.184L9.018 4.893ZM26.31 19.878c-2.106 0-3.834-.594-5.184-1.782-1.35-1.188-2.025-2.781-2.025-4.779V.6H22.8v12.42c0 1.008.288 1.8.864 2.376.594.558 1.476.837 2.646.837s2.043-.279 2.619-.837c.594-.576.89-1.368.89-2.376V.6h3.727v12.717c0 1.998-.675 3.591-2.025 4.779-1.35 1.188-3.087 1.782-5.211 1.782Zm19.557 0c-2.826 0-5.175-.945-7.047-2.835-1.855-1.872-2.782-4.203-2.782-6.993 0-2.808.928-5.139 2.782-6.993 1.87-1.89 4.22-2.835 7.046-2.835 1.71 0 3.285.405 4.725 1.215 1.458.792 2.592 1.872 3.401 3.24L50.781 6.54a4.9 4.9 0 0 0-1.998-1.971c-.864-.486-1.837-.729-2.916-.729-1.836 0-3.322.576-4.456 1.728-1.116 1.17-1.674 2.664-1.674 4.482 0 1.8.558 3.285 1.674 4.455 1.134 1.152 2.62 1.728 4.456 1.728 1.08 0 2.052-.234 2.916-.702.881-.486 1.547-1.143 1.998-1.971l3.212 1.863c-.81 1.368-1.944 2.457-3.401 3.267-1.44.792-3.015 1.188-4.725 1.188ZM54.799.6h13.905v3.564h-5.103V19.5h-3.726V4.164H54.8V.6Zm15.985 18.9V.6h3.726v18.9h-3.726Zm23.128-2.457c-1.908 1.89-4.23 2.835-6.966 2.835-2.736 0-5.058-.945-6.966-2.835-1.89-1.926-2.835-4.257-2.835-6.993 0-2.754.945-5.076 2.835-6.966C81.888 1.176 84.21.222 86.946.222c2.736 0 5.058.954 6.966 2.862 1.908 1.89 2.862 4.212 2.862 6.966 0 2.754-.954 5.085-2.862 6.993Zm-11.313-2.538c1.152 1.152 2.6 1.728 4.347 1.728 1.746 0 3.195-.576 4.347-1.728 1.17-1.17 1.755-2.655 1.755-4.455 0-1.8-.585-3.285-1.755-4.455s-2.62-1.755-4.347-1.755c-1.728 0-3.177.585-4.347 1.755-1.17 1.17-1.755 2.655-1.755 4.455 0 1.8.585 3.285 1.755 4.455Zm27.729-2.376V.6h3.726v18.9h-2.835l-8.1-11.556V19.5h-3.726V.6h2.835l8.1 11.529Zm11.39 5.427c0 .63-.225 1.17-.675 1.62-.45.45-.99.675-1.62.675a2.21 2.21 0 0 1-1.62-.675 2.21 2.21 0 0 1-.675-1.62c0-.63.225-1.17.675-1.62.45-.45.99-.675 1.62-.675.63 0 1.17.225 1.62.675.45.45.675.99.675 1.62Zm10.659 2.322c-2.826 0-5.175-.945-7.047-2.835-1.854-1.872-2.781-4.203-2.781-6.993 0-2.808.927-5.139 2.781-6.993 1.872-1.89 4.221-2.835 7.047-2.835 1.71 0 3.285.405 4.725 1.215 1.458.792 2.592 1.872 3.402 3.24l-3.213 1.863a4.9 4.9 0 0 0-1.998-1.971c-.864-.486-1.836-.729-2.916-.729-1.836 0-3.321.576-4.455 1.728-1.116 1.17-1.674 2.664-1.674 4.482 0 1.8.558 3.285 1.674 4.455 1.134 1.152 2.619 1.728 4.455 1.728 1.08 0 2.052-.234 2.916-.702.882-.486 1.548-1.143 1.998-1.971l3.213 1.863c-.81 1.368-1.944 2.457-3.402 3.267-1.44.792-3.015 1.188-4.725 1.188Zm26.135-2.835c-1.908 1.89-4.23 2.835-6.966 2.835-2.736 0-5.058-.945-6.966-2.835-1.89-1.926-2.835-4.257-2.835-6.993 0-2.754.945-5.076 2.835-6.966 1.908-1.908 4.23-2.862 6.966-2.862 2.736 0 5.058.954 6.966 2.862 1.908 1.89 2.862 4.212 2.862 6.966 0 2.754-.954 5.085-2.862 6.993Zm-11.313-2.538c1.152 1.152 2.601 1.728 4.347 1.728 1.746 0 3.195-.576 4.347-1.728 1.17-1.17 1.755-2.655 1.755-4.455 0-1.8-.585-3.285-1.755-4.455s-2.619-1.755-4.347-1.755c-1.728 0-3.177.585-4.347 1.755-1.17 1.17-1.755 2.655-1.755 4.455 0 1.8.585 3.285 1.755 4.455ZM178.653.6h3.834v18.9h-3.699V7.242l-5.319 8.775h-.432l-5.319-8.748V19.5h-3.726V.6h3.834l5.427 8.937 5.4-8.937Z"/></svg><svg viewBox="0 0 20 20" id="mail" xmlns="http://www.w3.org/2000/svg"><path d="M2.5 6.667a2.5 2.5 0 0 1 2.5-2.5h10a2.5 2.5 0 0 1 2.5 2.5v6.666a2.5 2.5 0 0 1-2.5 2.5H5a2.5 2.5 0 0 1-2.5-2.5V6.666Z"/><path d="M5.833 7.5 10 10.833 14.167 7.5"/></svg><svg viewBox="0 0 20 20" id="phone" xmlns="http://www.w3.org/2000/svg"><path d="M13.91 8.56a4.166 4.166 0 0 0-2.358-2.427m5.692 1.926a7.5 7.5 0 0 0-5.303-5.304"/><path clip-rule="evenodd" d="M7.954 7.202c.337 1.215-.042 2.483-.87 3.264-.157.148-.208.387-.085.564a7.911 7.911 0 0 0 1.966 1.968c.177.124.417.072.565-.086.78-.836 2.051-1.218 3.27-.88 1.641.455 2.565 2.046 2.063 3.553-1.47 4.416-7.133.039-8.81-1.64C4.336 12.228.025 6.598 4.404 5.138c1.506-.503 3.096.422 3.55 2.065Z"/></svg><svg viewBox="0 0 24 24" id="search" xmlns="http://www.w3.org/2000/svg"><path d="M11 19a8 8 0 1 0 0-16 8 8 0 0 0 0 16Zm10 2-4-4"/></svg><svg class="ghidden" viewBox="0 0 0 0" id="sprite"/></svg>